<?xml version="1.0" standalone="no"?>
<!DOCTYPE svg PUBLIC "-//W3C//DTD SVG 20010904//EN"
 "http://www.w3.org/TR/2001/REC-SVG-20010904/DTD/svg10.dtd">
<svg version="1.0" xmlns="http://www.w3.org/2000/svg"
 width="504.000000pt" height="504.000000pt" viewBox="0 0 504.000000 504.000000"
 preserveAspectRatio="xMidYMid meet">
<metadata>
Created by potrace 1.14, written by Peter Selinger 2001-2017
</metadata>
<g transform="translate(0.000000,504.000000) scale(0.100000,-0.100000)"
fill="#000000" stroke="none">
<path d="M2315 5009 c-337 -69 -594 -254 -760 -545 -124 -216 -166 -454 -131
-727 12 -94 75 -275 121 -348 14 -21 25 -41 25 -45 0 -8 60 -92 95 -133 149
-173 322 -289 530 -354 72 -23 104 -29 200 -42 42 -6 213 -6 257 0 415 56 753
318 904 703 89 225 98 498 24 736 -117 376 -442 671 -827 751 -13 3 -35 8 -50
11 -16 3 -89 7 -163 9 -102 2 -157 -2 -225 -16z"/>
<path d="M2499 2256 c-2 -2 -35 -6 -74 -10 -106 -9 -143 -16 -230 -43 -260
-81 -492 -263 -627 -493 -44 -74 -98 -196 -113 -255 -5 -16 -9 -34 -11 -40
-32 -113 -40 -289 -21 -451 6 -47 30 -138 39 -148 4 -6 8 -19 8 -29 0 -31 76
-184 135 -272 233 -347 671 -537 1080 -471 55 9 105 18 110 20 6 1 24 6 40 10
52 13 198 78 265 120 275 169 476 467 516 766 3 25 8 54 10 65 6 29 6 218 0
235 -2 8 -7 39 -11 69 -8 73 -60 230 -105 318 -182 350 -548 588 -926 602 -38
1 -71 4 -75 6 -3 3 -8 3 -10 1z"/>
</g>
</svg>
